<svg xmlns="http://www.w3.org/2000/svg" viewBox="0 0 171.63 63.08"><defs><style>.cls-1,.cls-2{fill:#e53212;}.cls-2{font-size:33px;font-family:InriaSans-Bold, Inria Sans;font-weight:700;}.cls-3{fill:#384257;}</style></defs><title>InriaLearningLab</title><g id="Calque_2" data-name="Calque 2"><g id="Calque_1-2" data-name="Calque 1"><path class="cls-1" d="M4,5.28V27.72H0V5.28Z"/><path class="cls-1" d="M17.16,14.19a5,5,0,0,0-2.05.48,12.5,12.5,0,0,0-2.34,1.47V27.72H9V11h3.59v2.24a12.31,12.31,0,0,1,2.92-2,6.86,6.86,0,0,1,2.82-.61A4.5,4.5,0,0,1,22,12.18a6.53,6.53,0,0,1,1.27,4.32V27.72H19.44V17a3.26,3.26,0,0,0-.56-2.09A2.12,2.12,0,0,0,17.16,14.19Z"/><path class="cls-1" d="M37.12,10.66v3.79a8.67,8.67,0,0,0-5.64,2V27.72H27.69V11h3.59v2.57a13.69,13.69,0,0,1,3-2.24A6.23,6.23,0,0,1,37.12,10.66Z"/><path class="cls-1" d="M44.09,3.89V7.82h-4V3.89ZM44,11V27.72h-3.8V11Z"/><path class="cls-1" d="M62.2,27.88h-.75a5.06,5.06,0,0,1-2.6-.62,3.71,3.71,0,0,1-1.56-1.78,10.92,10.92,0,0,1-2.79,2,6.59,6.59,0,0,1-2.79.61,3.94,3.94,0,0,1-3.17-1.32A5.53,5.53,0,0,1,47.42,23a4.56,4.56,0,0,1,1.44-3.71,6.63,6.63,0,0,1,4.34-1.2,13.67,13.67,0,0,1,1.63.1c.58.06,1.25.16,2,.29V16.57a2.31,2.31,0,0,0-.68-1.84A3.27,3.27,0,0,0,54,14.16a9.6,9.6,0,0,0-2.24.28,14,14,0,0,0-2.45.81L48.25,12a19.5,19.5,0,0,1,3.16-1,13.24,13.24,0,0,1,2.87-.33,6.43,6.43,0,0,1,4.62,1.48,5.84,5.84,0,0,1,1.56,4.43V23a1.38,1.38,0,0,0,.36,1,1.35,1.35,0,0,0,1,.37h.36Zm-8.74-7a2.74,2.74,0,0,0-1.8.5A1.94,1.94,0,0,0,51.08,23a2.26,2.26,0,0,0,.4,1.42,1.38,1.38,0,0,0,1.15.49,4.16,4.16,0,0,0,2-.54,11,11,0,0,0,2.18-1.7V21.22a14.72,14.72,0,0,0-1.7-.23C54.56,20.94,54,20.92,53.46,20.92Z"/><text class="cls-2" transform="translate(62.8 27.72)"> </text><path class="cls-3" d="M4,51.92h9v3.8H0V33.28H4Z"/><path class="cls-3" d="M28.08,51.56l1.09,3.2a18.08,18.08,0,0,1-3.13,1,15.46,15.46,0,0,1-3,.31,7.45,7.45,0,0,1-5.58-2,7.8,7.8,0,0,1-2-5.69v-2a8,8,0,0,1,1.9-5.6,6.58,6.58,0,0,1,5.13-2.09,6.72,6.72,0,0,1,4.88,1.81,6.53,6.53,0,0,1,1.88,5,11.57,11.57,0,0,1-.11,1.52,14.26,14.26,0,0,1-.32,1.58h-9.7a4.49,4.49,0,0,0,1.06,3.11,4.12,4.12,0,0,0,3,1,10.75,10.75,0,0,0,2.36-.27A13.49,13.49,0,0,0,28.08,51.56ZM25.57,45a3.18,3.18,0,0,0-.82-2.31,2.94,2.94,0,0,0-2.21-.86,3,3,0,0,0-2.34,1,4.53,4.53,0,0,0-1,2.79h6.33a.75.75,0,0,0,0-.23Z"/><path class="cls-3" d="M46.63,55.88h-.76a5,5,0,0,1-2.59-.62,3.68,3.68,0,0,1-1.57-1.78,10.92,10.92,0,0,1-2.79,2,6.59,6.59,0,0,1-2.79.61A3.91,3.91,0,0,1,33,54.73,5.53,5.53,0,0,1,31.84,51a4.56,4.56,0,0,1,1.44-3.71,6.65,6.65,0,0,1,4.34-1.2,13.67,13.67,0,0,1,1.63.1c.59.06,1.25.16,2,.29V44.56a2.3,2.3,0,0,0-.68-1.83,3.27,3.27,0,0,0-2.13-.57,9.6,9.6,0,0,0-2.24.28,13.94,13.94,0,0,0-2.44.81L32.67,40a19.59,19.59,0,0,1,3.17-1,13.17,13.17,0,0,1,2.87-.33,6.46,6.46,0,0,1,4.62,1.48,5.87,5.87,0,0,1,1.55,4.42V51a1.27,1.27,0,0,0,1.39,1.39h.36Zm-8.75-7a2.74,2.74,0,0,0-1.8.5A1.94,1.94,0,0,0,35.51,51a2.26,2.26,0,0,0,.39,1.42,1.4,1.4,0,0,0,1.16.49,4.16,4.16,0,0,0,2-.54,10.77,10.77,0,0,0,2.18-1.7V49.22a14.43,14.43,0,0,0-1.7-.23C39,48.94,38.43,48.92,37.88,48.92Z"/><path class="cls-3" d="M58.9,38.66v3.79a8.88,8.88,0,0,0-3,.5,8.7,8.7,0,0,0-2.66,1.52V55.72H49.47V39h3.59v2.57a13.69,13.69,0,0,1,3-2.24A6.23,6.23,0,0,1,58.9,38.66Z"/><path class="cls-3" d="M70,42.19a5,5,0,0,0-2,.48,12.5,12.5,0,0,0-2.34,1.47V55.72h-3.8V39h3.6v2.24a12.31,12.31,0,0,1,2.92-2,6.86,6.86,0,0,1,2.82-.61,4.47,4.47,0,0,1,3.65,1.52A6.53,6.53,0,0,1,76,44.5V55.72H72.24V45a3.2,3.2,0,0,0-.57-2.09A2.09,2.09,0,0,0,70,42.19Z"/><path class="cls-3" d="M84.48,31.89v3.93h-4V31.89Zm-.1,7.1V55.72h-3.8V39Z"/><path class="cls-3" d="M97.32,42.19a4.93,4.93,0,0,0-2,.48,12.19,12.19,0,0,0-2.34,1.47V55.72h-3.8V39h3.6v2.24a12.11,12.11,0,0,1,2.92-2,6.79,6.79,0,0,1,2.82-.61,4.48,4.48,0,0,1,3.65,1.52,6.58,6.58,0,0,1,1.27,4.32V55.72h-3.8V45A3.2,3.2,0,0,0,99,42.87,2.09,2.09,0,0,0,97.32,42.19Z"/><path class="cls-3" d="M121.83,57.4a4.85,4.85,0,0,1-2.09,4.18,9.87,9.87,0,0,1-5.82,1.5,17,17,0,0,1-3.92-.45,12.89,12.89,0,0,1-3.38-1.27l1.09-3a15,15,0,0,0,3,1.1,12.77,12.77,0,0,0,3.13.38A7.42,7.42,0,0,0,117,59.3a1.67,1.67,0,0,0,1.12-1.5,1.3,1.3,0,0,0-.43-1.06,1.9,1.9,0,0,0-1.25-.36h-4a5,5,0,0,1-3.32-1A3.29,3.29,0,0,1,108,52.72a4.1,4.1,0,0,1,.4-1.74,6.06,6.06,0,0,1,1.16-1.63,5.24,5.24,0,0,1-1.93-2,5.88,5.88,0,0,1-.68-2.87,5.48,5.48,0,0,1,1.7-4.26,6.52,6.52,0,0,1,4.57-1.55h.56a11.14,11.14,0,0,1,1.32.08,7.25,7.25,0,0,1,1.15.25h6v3.23l-3.3-.53a4.06,4.06,0,0,1,.79,1.39A5.63,5.63,0,0,1,120,44.9a4.86,4.86,0,0,1-1.73,3.89,6.61,6.61,0,0,1-4.47,1.48h-.56c-.22,0-.44,0-.65,0l-.61-.06a2.86,2.86,0,0,0-.51.77,2.05,2.05,0,0,0-.18.81,1,1,0,0,0,.38.86,1.82,1.82,0,0,0,1.11.29h4a5.43,5.43,0,0,1,3.71,1.21A4.12,4.12,0,0,1,121.83,57.4Zm-8.64-10.23h.56a2.5,2.5,0,0,0,1.85-.74,3,3,0,0,0,0-3.93,2.5,2.5,0,0,0-1.85-.74h-.56a2.52,2.52,0,0,0-1.88.74,3,3,0,0,0,0,3.93A2.52,2.52,0,0,0,113.19,47.17Z"/><path class="cls-3" d="M129.46,51.92h9v3.8H125.5V33.28h4Z"/><path class="cls-3" d="M154.7,55.88h-.76a5,5,0,0,1-2.59-.62,3.71,3.71,0,0,1-1.56-1.78,10.92,10.92,0,0,1-2.79,2,6.59,6.59,0,0,1-2.79.61A3.93,3.93,0,0,1,141,54.73a5.53,5.53,0,0,1-1.12-3.7,4.59,4.59,0,0,1,1.43-3.71,6.67,6.67,0,0,1,4.34-1.2,13.84,13.84,0,0,1,1.64.1c.58.06,1.25.16,2,.29V44.56a2.29,2.29,0,0,0-.67-1.83,3.27,3.27,0,0,0-2.13-.57,9.68,9.68,0,0,0-2.25.28,14.22,14.22,0,0,0-2.44.81L140.74,40a19.91,19.91,0,0,1,3.17-1,13.24,13.24,0,0,1,2.87-.33,6.43,6.43,0,0,1,4.62,1.48A5.83,5.83,0,0,1,153,44.56V51a1.28,1.28,0,0,0,1.39,1.39h.36Zm-8.74-7a2.71,2.71,0,0,0-1.8.5,1.91,1.91,0,0,0-.58,1.55,2.2,2.2,0,0,0,.4,1.42,1.38,1.38,0,0,0,1.15.49,4.19,4.19,0,0,0,2-.54,10.74,10.74,0,0,0,2.17-1.7V49.22a14.43,14.43,0,0,0-1.7-.23C147.06,48.94,146.51,48.92,146,48.92Z"/><path class="cls-3" d="M171.63,46.45v1.78A8.4,8.4,0,0,1,169.8,54a6.56,6.56,0,0,1-5.17,2.06,13.63,13.63,0,0,1-3.59-.5,16.81,16.81,0,0,1-3.63-1.48V31.3h3.79v9.9a10.74,10.74,0,0,1,2.48-2,4.92,4.92,0,0,1,2.37-.58,4.78,4.78,0,0,1,4.11,2A9.74,9.74,0,0,1,171.63,46.45ZM165,42.19a3.5,3.5,0,0,0-1.8.53,10.2,10.2,0,0,0-2,1.75V52a8.7,8.7,0,0,0,1.6.52,6.39,6.39,0,0,0,1.5.17,3.05,3.05,0,0,0,2.58-1.11,5.34,5.34,0,0,0,.86-3.31V46.45a6.08,6.08,0,0,0-.68-3.19A2.25,2.25,0,0,0,165,42.19Z"/></g></g></svg>